<svg xmlns="http://www.w3.org/2000/svg" xmlns:xlink="http://www.w3.org/1999/xlink" width="500" zoomAndPan="magnify" viewBox="0 0 375 374.999991" height="500" preserveAspectRatio="xMidYMid meet" version="1.0"><defs><clipPath id="08b06514d6"><path d="M 14.101562 97 L 359.339844 97 L 359.339844 359.902344 L 14.101562 359.902344 Z M 14.101562 97 " clip-rule="nonzero"/></clipPath><clipPath id="0ef43dd761"><path d="M 14.101562 14.664062 L 359 14.664062 L 359 278 L 14.101562 278 Z M 14.101562 14.664062 " clip-rule="nonzero"/></clipPath></defs><g clip-path="url(#08b06514d6)"><path fill="#3871c1" d="M 202.945312 126.320312 C 212.039062 116.054688 227.730469 115.101562 237.996094 124.191406 C 248.257812 133.289062 249.210938 148.980469 240.121094 159.242188 C 231.023438 169.507812 215.335938 170.453125 205.070312 161.367188 C 194.808594 152.273438 193.855469 136.582031 202.945312 126.320312 Z M 291.328125 243.519531 C 287.875 245.125 284.4375 246.589844 280.984375 247.949219 C 261.035156 278.882812 226.28125 299.378906 186.722656 299.378906 C 124.8125 299.378906 74.613281 249.1875 74.613281 187.269531 C 74.613281 179.09375 75.492188 171.132812 77.148438 163.457031 C 103.863281 153.285156 137.851562 146.851562 177.1875 153.382812 C 179.28125 162.1875 184.011719 170.457031 191.296875 176.914062 C 210.148438 193.609375 238.972656 191.863281 255.667969 173.011719 C 272.367188 154.15625 270.625 125.339844 251.777344 108.644531 C 232.914062 91.945312 204.097656 93.691406 187.398438 112.539062 C 185.1875 115.03125 183.308594 117.695312 181.742188 120.484375 C 158.097656 119.617188 121.65625 121.933594 85.671875 138.664062 C 60.171875 150.519531 34.917969 169.597656 14.574219 199.910156 C 14.59375 200.324219 14.632812 200.742188 14.671875 201.15625 C 14.902344 204.15625 15.222656 207.140625 15.617188 210.101562 L 37.574219 217.910156 C 41.519531 237.207031 49.125 255.160156 59.605469 271.042969 L 49.597656 292.105469 C 58.882812 304.242188 69.75 315.113281 81.886719 324.402344 L 102.957031 314.386719 C 118.832031 324.867188 136.792969 332.472656 156.082031 336.417969 L 163.890625 358.375 C 171.359375 359.371094 178.976562 359.882812 186.722656 359.882812 C 194.464844 359.882812 202.089844 359.371094 209.558594 358.375 L 217.367188 336.417969 C 236.65625 332.472656 254.617188 324.867188 270.492188 314.386719 L 291.558594 324.402344 C 303.691406 315.113281 314.566406 304.242188 323.859375 292.105469 L 313.84375 271.042969 C 324.324219 255.160156 331.921875 237.207031 335.867188 217.910156 L 357.839844 210.101562 C 358.769531 203.019531 359.277344 195.796875 359.328125 188.464844 C 341.15625 212.457031 318.339844 230.964844 291.328125 243.519531 " fill-opacity="1" fill-rule="nonzero"/></g><g clip-path="url(#0ef43dd761)"><path fill="#00adef" d="M 170.5 248.222656 C 161.410156 258.488281 145.71875 259.4375 135.449219 250.351562 C 125.183594 241.253906 124.234375 225.5625 133.328125 215.300781 C 142.417969 205.035156 158.109375 204.097656 168.378906 213.179688 C 178.644531 222.269531 179.59375 237.960938 170.5 248.222656 Z M 358.785156 173.378906 C 358.542969 170.371094 358.226562 167.398438 357.839844 164.441406 L 335.867188 156.628906 C 331.921875 137.335938 324.324219 119.382812 313.835938 103.507812 L 323.859375 82.433594 C 314.566406 70.300781 303.691406 59.425781 291.558594 50.140625 L 270.492188 60.15625 C 254.609375 49.675781 236.65625 42.070312 217.375 38.125 L 209.558594 16.167969 C 202.085938 15.167969 194.464844 14.65625 186.722656 14.65625 C 178.976562 14.65625 171.359375 15.167969 163.890625 16.167969 L 156.082031 38.125 C 136.789062 42.070312 118.832031 49.675781 102.957031 60.15625 L 81.886719 50.140625 C 69.75 59.425781 58.882812 70.300781 49.589844 82.433594 L 59.605469 103.507812 C 49.125 119.382812 41.519531 137.335938 37.574219 156.628906 L 15.617188 164.441406 C 14.671875 171.519531 14.167969 178.738281 14.113281 186.070312 C 32.292969 162.078125 55.109375 143.578125 82.121094 131.023438 C 85.566406 129.421875 89.011719 127.953125 92.457031 126.59375 C 112.40625 95.660156 147.164062 75.164062 186.722656 75.164062 C 248.640625 75.164062 298.828125 125.359375 298.828125 187.269531 C 298.828125 195.449219 297.949219 203.410156 296.300781 211.085938 C 269.578125 221.257812 235.59375 227.691406 196.261719 221.160156 C 194.164062 212.351562 189.4375 204.085938 182.148438 197.625 C 163.292969 180.933594 134.476562 182.675781 117.78125 201.53125 C 101.074219 220.378906 102.820312 249.203125 121.675781 265.894531 C 140.535156 282.605469 169.34375 280.851562 186.046875 262.003906 C 188.257812 259.511719 190.132812 256.847656 191.703125 254.058594 C 215.347656 254.925781 251.789062 252.605469 287.769531 235.878906 C 313.273438 224.019531 338.539062 204.9375 358.875 174.617188 C 358.847656 174.210938 358.808594 173.792969 358.785156 173.378906 " fill-opacity="1" fill-rule="nonzero"/></g></svg>